<svg xmlns="http://www.w3.org/2000/svg" width="512" height="512"><path fill="#6D4AFF" stroke="#6D4AFF" d="M170.5 107q22.51-2.01 29.5 11.5l5 13 .5 60.5q12.87-10.63 31-16l17-3h27l16 3 16 6q17.49 9.01 29.5 23.5 13.34 15.66 19 39l1 14 1 1v63l-1 1v7l-2 10-4 11q-8.34 19.66-23.5 32.5-15.83 14.17-40 20-4.75-1.25-6 1h-62q-34.8-6.7-53.5-29.5-10-11-16-26l-4-13-1-12-1-1v-191q2.25-13.75 11.5-20.5zM214 228l-6 3-3 6v105l2 4q3 4 9 5h81l5-2 5-7V238l-1-3-7-7z"/><path fill="#6D4AFF" stroke="#6D4AFF" d="M228.5 260h55l2.5 2.5q1.25 6.25-2.5 7.5h-55l-2.5-2.5q-1.25-6.25 2.5-7.5Zm2 25h51l3.5 1 1 6.5-4.5 3.5h-51l-4.5-3.5q-1-5.5 2.5-6.5zm-2 26h37l2.5 2.5q1.25 5.25-1.5 6.5l-2 1h-36q-3.75-1.25-2.5-7.5z"/></svg>