<svg xmlns="http://www.w3.org/2000/svg" height="768" preserveAspectRatio="none" style="display: block;" version="1.1" viewBox="0 0 2048 1170" width="1344">
<path d="M 1447.9 214.746 C 1470.38 193.919 1491.66 171.33 1513.61 149.943 C 1515.11 148.483 1516.93 147.659 1519.04 147.591 C 1529.8 152.457 1519.39 160.242 1514.73 164.9 C 1495.21 184.417 1476.48 205.15 1455.93 223.587 L 1453.22 228.649 C 1450.86 234.009 1448.58 239.489 1445.7 244.576 C 1439.11 248.295 1421.79 255.662 1418.73 260.555 L 1415.22 269.753 C 1414.21 272.597 1412.81 276.911 1411.55 279.484 C 1399.31 286.745 1386.41 288.778 1382.06 301.03 L 1380.31 305.631 L 1374.33 317.681 C 1365.72 322.591 1347.52 330.003 1344.11 337.935 C 1343.57 341.833 1342.3 344.338 1340.77 347.942 C 1332.19 368.49 1313.04 359.794 1306.26 379.691 L 1303.5 386.76 C 1297.7 398.604 1284.83 402.946 1272.67 409.071 C 1271.12 412.487 1269.49 415.881 1268.19 419.402 L 1266.18 424.669 C 1261.96 435.869 1247.1 441.088 1235.79 446.349 C 1232.45 453.172 1229.05 459.714 1226.58 466.898 C 1225.43 469.099 1224.5 471.286 1222.78 473.039 L 1194.38 489.234 C 1191.23 497.122 1187.81 506.41 1183.78 513.744 C 1176.73 517.354 1165.09 523.715 1158.03 526.195 C 1156.99 530.875 1155.13 536.304 1157.92 540.24 C 1164.67 549.774 1180.31 550.365 1187.65 560.55 C 1190.91 565.073 1193.07 572.504 1195.49 577.619 C 1195.88 578.553 1197.69 583.124 1198.05 583.702 L 1227.86 601.421 C 1231.93 608.81 1235.46 618.139 1238.69 626.08 C 1249.54 633.232 1262.67 641.992 1274.29 647.442 C 1275.88 651.828 1278.05 658.491 1280.32 662.35 C 1281.02 664.035 1282.29 666.799 1282.61 668.498 C 1285.78 673.876 1304.16 682.437 1310.27 685.547 C 1313.24 689.601 1313.85 690.467 1315.71 695.103 C 1317.78 700.106 1320.48 707.191 1322.93 711.838 C 1331.19 716.596 1351.37 726.224 1356.02 732.936 C 1356.68 735.266 1357.35 737.592 1358.04 739.911 C 1359.17 742.985 1360.93 748.268 1362.26 751.043 C 1372.47 757.054 1382.72 763.009 1393.01 768.908 C 1393.93 770.934 1396.64 776.563 1397.07 778.368 C 1398.57 781.63 1400.23 785.49 1401.85 788.629 C 1410.88 793.618 1421.38 799.114 1429.94 804.646 C 1431.54 807.427 1432.96 809.761 1434.23 812.731 C 1436.32 818.214 1438.64 824.783 1440.97 830.072 C 1450.29 835.016 1471.59 843.847 1474.81 852.891 C 1475.32 854.759 1475.74 856.626 1476.56 858.372 L 1480.39 869.512 C 1488.78 874.486 1507.11 886.394 1514.27 889.886 C 1517.2 897.185 1520.21 904.278 1522.45 911.822 C 1531.94 921.231 1547.53 924.034 1558.45 937.067 L 1564.18 943.244 C 1577.74 957.713 1657.14 1034.56 1659.06 1045.41 C 1656.77 1048.89 1651.89 1050.92 1648.52 1047.6 C 1637.56 1037.02 1628.48 1025.57 1617.57 1014.83 C 1592.3 989.956 1568.28 962.509 1541.8 939.023 C 1536.29 934.138 1521.9 927.088 1515.31 923.651 C 1511.69 916.047 1508.1 906.637 1504.87 898.731 C 1498.39 893.302 1479.72 883.484 1471.56 879.059 C 1470.48 876.455 1469.24 872.536 1468.26 869.776 L 1465 861.382 C 1460.3 851.086 1441.56 843.316 1430.69 837.468 C 1429.05 832.657 1426.67 827.022 1424.78 822.219 L 1422.23 815.295 C 1411.85 805.343 1395.37 805.009 1389.34 790.056 C 1387.62 786.414 1386.48 784.078 1385.29 780.208 C 1375.97 767.224 1356.67 769.358 1350.68 752.78 L 1347.05 744.136 L 1343.42 736.542 C 1336.16 733.369 1319.33 723.872 1312.7 719.543 C 1310.01 714.373 1305.41 701.906 1302.96 695.928 C 1296.28 690.749 1284.19 685.109 1276.26 681.127 C 1274.29 679.471 1274.02 678.569 1272.78 676.239 C 1262.02 648.171 1254.67 651.222 1228.17 634.32 C 1226.89 629.248 1220.63 615.662 1218.27 610.215 C 1209.05 604.139 1199.33 598.352 1189.9 592.585 C 1188.42 591.244 1187.04 589.515 1185.72 587.988 C 1183.26 580.957 1180.51 574.035 1177.45 567.241 C 1166.67 560.225 1155.37 555.047 1144.29 547.148 L 1145.25 539.899 C 1144.17 514.353 1153.06 515.73 1174.35 504.86 C 1178.5 497.232 1181.85 488.776 1185.22 480.741 C 1195.29 474.657 1205.4 468.639 1215.55 462.687 C 1217.6 456.122 1222.26 445.776 1225.04 439.138 C 1233.56 434.241 1246.22 427.306 1253.94 421.766 C 1255.59 418.105 1257.33 412.705 1258.71 408.808 C 1259.39 406.635 1259.94 404.253 1260.51 402.033 C 1263.26 399.318 1285.56 388.101 1290.75 385.432 L 1296.45 372.552 C 1297.7 369.558 1297.79 368.999 1298.14 365.762 C 1302.12 360 1320.77 351.439 1328.27 347.016 L 1335.97 325.982 L 1339.14 322.838 C 1347.96 318.285 1356.7 313.57 1365.34 308.697 C 1368.87 300.947 1372.27 293.142 1375.55 285.284 L 1381.04 281.6 C 1389.07 277.657 1394.68 274.494 1402.33 269.848 L 1408.15 254.071 L 1410.23 249.127 C 1415.21 245.713 1430.26 238.838 1435.92 236.124 C 1439.04 230.839 1441.72 224.773 1444.35 219.187 L 1447.9 214.746 z" fill="rgb(109,74,255)" transform="translate(0,0)"></path>
<metadata><recraft-signature>{"signed_by": "recraft", "signature_b64": "BSHtMVLHKWIXzS4vF9SqqfkICb2F3wScZ3gVbDSxyTu5TmrmfE1lG5JhYtyNoSuifw38L2JCfv6p3cOc0aqrAw==", "signing_algo": "Ed25519", "generation_timestamp": 1783935726, "identifier": "72d57a9f-bdd7-4351-afc0-28881618a46d"}</recraft-signature></metadata></svg>