<svg xmlns="http://www.w3.org/2000/svg" height="1024" preserveAspectRatio="none" style="display: block;" version="1.1" viewBox="0 0 2048 2048" width="1024">
<path d="M 1020.05 319.794 L 1020.21 108.646 L 1020.21 37.475 C 1020.2 27.5172 1020.06 17.5997 1019.97 7.6496 C 1019.93 3.23592 1020.33 1.8229 1024.43 1.2741 L 1025.97 2.52613 C 1026.78 10.2307 1026.36 29.1022 1026.38 37.5626 L 1026.47 103.048 L 1026.44 326.64 C 1051.38 327.393 1109.24 315.766 1108.97 350.877 C 1108.2 452.968 1123.31 446.87 1026.4 446.751 C 1026.22 478.002 1026.3 509.254 1026.64 540.503 C 1078.7 541.182 1130.91 540.41 1183 540.826 C 1204.26 541.19 1225.69 539.711 1246.91 540.837 C 1255.25 541.28 1262.93 546.901 1263.97 555.474 C 1265.53 568.382 1264.84 581.909 1264.75 594.921 C 1264.53 618.227 1264.47 641.535 1264.56 664.843 C 1283.11 665.302 1314.51 662.814 1332.39 666.945 C 1335.58 667.681 1343.95 675.797 1344.49 680.328 C 1347.06 706.636 1346.64 736.506 1345.49 762.962 C 1343.93 798.539 1285.28 779.537 1264.56 785.988 C 1265.34 816.84 1264.51 848.694 1264.8 879.633 C 1264.86 886.616 1265.24 921.397 1263.79 926.451 L 1262.01 927.19 C 1255.2 922.343 1258.13 884.394 1258.08 874.438 C 1195.97 873.626 1133.63 874.583 1071.49 874.264 C 1056.89 874.189 1040.69 873.659 1026.19 874.302 C 1026.22 880.415 1027.08 924.867 1024.5 927.146 L 1022.39 926.471 C 1018.27 919.988 1019.89 884.651 1019.92 874.215 C 979.967 873.967 940.009 873.926 900.052 874.091 C 861.517 874.133 821.677 873.769 783.213 874.589 C 783.169 882.944 784.755 922.954 781.212 928.056 C 778.505 927.996 776.466 923.984 776.474 921.689 C 776.523 908.968 776.592 896.242 776.617 883.516 L 776.803 785.226 C 759.497 784.885 727.205 789.584 713.023 778.672 C 707.823 774.671 704.09 764.757 704.686 758.388 C 706.226 741.927 700.374 654.397 708.081 645.993 C 717.305 642.517 751.144 644.074 763.047 644.372 C 766.815 647.763 773.219 655.449 776.819 659.551 C 777.085 626.943 775.108 583.653 777.109 552.237 C 787.249 536.848 800.012 540.73 816.925 540.736 L 863.31 540.781 L 1019.81 540.637 L 1019.86 446.824 C 1003.14 446.177 971.893 450.353 957.961 441.349 C 942.712 431.494 950.039 394.783 948.604 377.595 C 947.9 369.16 947.66 312.064 951.401 308.682 C 957.269 303.38 996.936 305.934 1007.57 306.149 C 1012.02 310.437 1015.97 315.146 1020.05 319.794 z" fill="rgb(26,21,35)" transform="translate(0,0)"></path>
<path d="M 792.691 547.129 C 866.142 545.514 946.132 546.931 1019.92 547.107 L 1019.94 658.996 C 1015.45 653.513 1011.69 649.268 1006.84 644.101 C 994.526 643.973 960.851 642.139 951.851 646.515 C 944.807 654.501 949.519 722.344 948.02 737.07 C 941.974 796.457 975.932 784.96 1019.97 785 C 1019.98 811.163 1020.57 840.041 1019.7 865.979 C 1017.8 868.026 1019 867.231 1015.25 867.374 L 783.483 867.424 C 782.693 841.039 783.271 811.686 783.229 785.07 C 807.032 784.768 869.425 794.083 865.02 759.722 C 862.361 738.983 875.396 669.327 848.435 665.921 C 831.621 663.797 800.958 665.192 783.167 664.732 C 782.912 648.764 781.062 562.692 784.507 553.642 C 785.849 550.114 789.526 548.582 792.691 547.129 z" fill="rgb(250,249,247)" transform="translate(0,0)"></path>
<path d="M 1026.34 546.972 L 1172.99 547.018 C 1197.4 547.009 1221.93 546.354 1246.29 547.275 C 1251.63 547.477 1256.71 551.36 1257.36 556.794 C 1258.75 568.347 1258.27 580.414 1258.27 592.06 C 1258.3 614.543 1258.19 637.026 1257.93 659.507 C 1253.32 654.116 1249.08 649.624 1244.14 644.517 C 1230.33 643.464 1215.51 644.317 1201.66 643.799 C 1187.61 643.272 1185.58 645.821 1185.1 660.034 C 1184.48 678.728 1185.18 697.653 1184.9 716.369 C 1182.36 793.559 1189.02 785.364 1258.16 785.186 L 1258.37 852.276 L 1258.33 867.618 L 1026.91 867.653 C 1025.11 852.201 1026.27 802.754 1026.36 785.014 C 1042.28 784.927 1088.25 788.53 1099.22 779.459 C 1117.5 760.544 1106.58 705.502 1107.8 680.792 C 1108.91 658.592 1039.41 665.048 1026.18 665.032 L 1026.34 546.972 z" fill="rgb(250,249,247)" transform="translate(0,0)"></path>
<path d="M 954.991 354.06 C 1003.56 353.962 1054.05 353.913 1102.48 354.626 C 1103.23 376.292 1103.15 399.571 1102.58 421.316 C 1102.44 426.993 1100.45 431.119 1097.19 435.679 C 1088.93 441.376 1079.29 440.932 1069.37 440.713 C 1036.08 439.98 1002.36 441.598 969.164 439.439 C 962.587 439.011 958.683 433.529 955.138 428.536 C 953.341 409.891 954.776 373.732 954.991 354.06 z" fill="rgb(250,249,247)" transform="translate(0,0)"></path>
<path d="M 711.102 692.395 C 727.635 691.756 746.876 692.2 763.571 692.191 L 858.157 692.341 C 858.271 708.225 858.529 724.146 858.47 740.025 C 858.423 752.452 860.364 763.35 852.661 773.757 C 848.878 776.442 845.935 778.691 841.11 778.774 C 810.844 779.295 780.533 778.601 750.254 778.971 C 741.847 779.074 732.928 779.284 724.658 777.835 C 718.573 776.738 714.119 769.818 711.225 764.996 C 710.092 743.891 710.934 713.948 711.102 692.395 z" fill="rgb(250,249,247)" transform="translate(0,0)"></path>
<path d="M 1191.65 692.287 C 1208.1 691.736 1226.95 692.26 1243.62 692.282 L 1339 692.239 C 1339.01 714.822 1340.09 742.188 1338.13 764.664 C 1337.89 767.376 1335.32 771.281 1333.76 773.575 C 1327.76 777.872 1323.76 778.963 1316.21 778.894 C 1279.61 778.559 1242.61 780.089 1206.13 777.951 C 1201.3 777.668 1193.29 770.267 1192.85 765.449 C 1190.68 741.56 1191.6 716.419 1191.65 692.287 z" fill="rgb(250,249,247)" transform="translate(0,0)"></path>
<path d="M 954.936 692.294 L 1102.25 692.779 C 1102.37 710.037 1102.61 727.32 1102.56 744.573 C 1102.53 755.61 1103.82 764.39 1096.6 773.367 C 1084.33 782.528 1043.13 777.978 1026.42 778.766 C 1008.7 779.603 987.487 778.743 969.624 778.137 C 963.057 777.914 958.476 771.554 955.171 766.653 C 953.482 746.655 954.703 713.468 954.936 692.294 z" fill="rgb(250,249,247)" transform="translate(0,0)"></path>
<path d="M 955.343 312.285 C 971.138 311.765 988.314 312.106 1004.12 312.403 C 1010.02 318.003 1017.14 326.881 1022.56 333.255 C 1042.69 333.197 1074.36 332.286 1093.4 334.078 C 1099.13 339.139 1100.46 340.273 1101.66 347.713 C 1053.4 348.433 1003.37 347.662 955.027 347.413 C 954.949 336.21 954.545 323.33 955.343 312.285 z" fill="rgb(250,249,247)" transform="translate(0,0)"></path>
<path d="M 1191.8 650.91 C 1206.76 650.018 1225.96 650.714 1241.26 650.933 C 1247.61 658.068 1253.73 666.018 1261.36 671.497 C 1274.95 671.334 1288.7 670.936 1302.28 671.068 C 1317.6 671.217 1333.51 667.866 1339.01 685.228 C 1334.09 686.487 1302.61 685.99 1295.21 685.967 L 1191.8 685.517 C 1191.58 673.983 1191.58 662.445 1191.8 650.91 z" fill="rgb(250,249,247)" transform="translate(0,0)"></path>
<path d="M 955.096 650.997 C 971.087 650.615 987.726 650.916 1003.77 650.995 C 1009.23 656.41 1016.36 665.15 1021.52 671.134 C 1036.73 671.611 1052.3 670.648 1067.5 671.104 C 1081.28 671.517 1098.78 668.603 1101.55 685.827 C 1054.26 686.862 1002.49 685.728 954.894 685.521 C 954.726 674.013 954.793 662.503 955.096 650.997 z" fill="rgb(250,249,247)" transform="translate(0,0)"></path>
<path d="M 711.209 651.044 C 727.63 650.9 744.053 650.892 760.475 651.02 C 767.89 659.935 771.382 664.78 780.754 671.428 C 798.465 671.241 854.919 663.692 857.412 685.759 L 711.101 685.495 C 711.064 674.012 711.1 662.528 711.209 651.044 z" fill="rgb(250,249,247)" transform="translate(0,0)"></path>
<path d="M 777.345 1128.5 C 780.237 1128.87 780.256 1128.67 782.658 1130.21 C 783.79 1138.73 783.087 1164.27 783.074 1174.12 L 783.142 1262.87 C 804.894 1263.54 827.288 1261.45 848.592 1264.28 C 853.762 1264.97 863.4 1273.23 863.864 1278.09 C 865.84 1304.34 865.578 1333.23 864.681 1359.54 C 863.764 1386.45 830.668 1383.62 812.479 1383.01 C 802.582 1382.68 792.687 1382.97 783.022 1382.95 L 783.155 1470.87 C 861.507 1471.89 941.411 1471.11 1019.88 1471 L 1020 1382.95 C 1004.14 1382.64 971.643 1386.08 958.751 1377.94 C 942.409 1367.62 949.603 1328.64 948.254 1309.85 C 947.488 1299.18 947.111 1252.03 951.408 1244.53 C 954.101 1239.83 997.753 1241.49 1006.54 1242.07 C 1012.02 1247.23 1015.03 1250.89 1019.85 1256.73 C 1019.91 1242.81 1019.06 1134.21 1021.21 1129.25 L 1023.11 1128.92 C 1024.79 1130.21 1026.54 1131.99 1026.5 1134.26 C 1026.31 1146.41 1026.28 1158.59 1026.27 1170.73 L 1026.22 1262.96 C 1042.13 1263.28 1090.3 1259.83 1101.69 1268.88 C 1114.85 1279.33 1107.74 1345.93 1108.01 1363.91 C 1108.12 1371.16 1096.23 1381.05 1088.52 1381.78 C 1068.43 1383.68 1047.17 1382.79 1026.73 1382.77 L 1026.02 1583.26 C 1044.15 1583.77 1062.39 1582.87 1080.58 1583.19 C 1093.32 1583.42 1107.89 1588.59 1108.87 1603.4 C 1109.48 1612.72 1109.02 1622.55 1108.94 1631.95 C 1108.78 1649.25 1109.57 1666.87 1108.64 1684.12 C 1103.18 1697.5 1095.53 1703.49 1080.81 1703.39 C 1043.34 1703.14 1005.71 1703.77 968.279 1703.02 C 964.558 1703.14 953.64 1696.85 952.673 1693.47 C 942.837 1659.11 950.282 1617.87 948.1 1582.01 C 947.784 1576.81 949.283 1567.78 951.643 1564.41 C 959.511 1561.33 998.158 1561.93 1007.48 1563.17 L 1019.81 1577.66 L 1019.71 1477.19 C 941.245 1476.36 861.57 1477.08 783.008 1477.18 L 782.968 1583.71 C 801.951 1584.18 842.798 1580.2 856.931 1588.62 C 870.198 1596.53 864.623 1665.59 864.287 1680.94 C 863.953 1696.2 849.336 1704.08 835.208 1703.51 C 799.502 1702.07 762.761 1705.14 727.184 1702.72 C 714.868 1701.88 704.376 1691.05 704.908 1678.82 C 705.609 1662.73 700.372 1572.49 708.768 1564.37 C 718.158 1560.83 750.828 1562.53 762.96 1562.78 C 767.371 1567.23 771.955 1572.35 776.266 1576.97 L 776.692 1382.97 C 702.318 1382.05 703.272 1389.03 704.495 1312 C 704.615 1304.46 702.225 1247.16 708.179 1244.18 C 716.899 1239.83 750.703 1241.94 762.262 1242.14 C 768.408 1247.51 771.39 1250.8 776.532 1257.03 L 776.63 1174.46 C 776.65 1162.74 776.023 1138.94 777.345 1128.5 z" fill="rgb(26,21,35)" transform="translate(0,0)"></path>
<path d="M 958.781 1610.5 C 1006.24 1610.01 1055.09 1610.78 1102.65 1611 C 1103.12 1630.54 1102.86 1650.47 1102.98 1670.05 C 1103.04 1680.01 1101.9 1687.2 1093.88 1693.59 C 1080.53 1701.14 997.356 1695.18 976.872 1697.09 C 951.72 1699.44 952.8 1672.6 954.264 1655.31 C 954.968 1646.99 952.253 1619.5 955.855 1611.27 L 958.781 1610.5 z" fill="rgb(250,249,247)" transform="translate(0,0)"></path>
<path d="M 954.8 1290 L 1102.62 1290.21 C 1102.83 1312.82 1104.09 1338.6 1101.74 1361.18 C 1101.43 1364.18 1098.8 1368.09 1097.09 1370.62 L 1096.13 1371.36 C 1093.9 1373.02 1090.71 1375.54 1087.84 1375.65 C 1055.21 1376.73 1022.39 1376.27 989.716 1376.34 C 973.422 1376.37 965.294 1378.69 955.272 1364.84 C 953.246 1351.2 954.237 1305.1 954.8 1290 z" fill="rgb(250,249,247)" transform="translate(0,0)"></path>
<path d="M 710.949 1610.86 C 758.223 1609.78 810.92 1610.38 858.383 1610.94 C 859.028 1632.1 859.112 1654.58 858.557 1675.8 C 858.408 1681.5 856.454 1685.79 853.466 1690.56 C 848.23 1695.56 844.775 1696.85 837.636 1696.96 C 815.829 1697.31 793.099 1697.33 771.363 1697.23 C 762.235 1697.19 734.752 1697.79 727.125 1696.41 C 723.25 1695.72 719.671 1693.88 716.847 1691.14 C 714.184 1688.6 711.912 1684.39 711.653 1680.81 C 710.026 1658.36 710.875 1633.24 710.949 1610.86 z" fill="rgb(250,249,247)" transform="translate(0,0)"></path>
<path d="M 711.101 1290.15 C 759.518 1289.5 809.767 1289.98 858.274 1290.23 C 858.077 1313.5 859.993 1340.56 856.939 1363.77 C 856.633 1366.1 853.541 1369.9 851.995 1371.77 C 845.947 1375.55 841.771 1376.61 834.57 1376.56 C 798.782 1376.3 762.737 1377.02 727.003 1375.71 C 719.049 1374.83 712.414 1367.03 711.797 1359.51 C 709.964 1337.17 710.936 1312.54 711.101 1290.15 z" fill="rgb(250,249,247)" transform="translate(0,0)"></path>
<path d="M 955.243 1248.29 C 969.091 1247.29 989.762 1248.04 1003.76 1248.23 C 1009.77 1254.22 1016.45 1262.46 1022.75 1269.05 C 1037.45 1269.24 1052.31 1268.63 1066.98 1269 C 1081.23 1269.35 1098.54 1266.26 1101.86 1283.74 L 954.853 1283.43 C 954.754 1272.39 954.364 1259.11 955.243 1248.29 z" fill="rgb(250,249,247)" transform="translate(0,0)"></path>
<path d="M 955.073 1569.06 C 971.037 1568.41 987.504 1568.7 1003.48 1568.89 C 1009.81 1575.03 1015.52 1583.08 1022.48 1590.07 C 1037.59 1590.03 1080.45 1589.07 1093.32 1591.25 C 1099.23 1595.86 1100.13 1597.11 1102.66 1604.15 C 1053.42 1604.31 1004.17 1604.21 954.933 1603.87 C 954.917 1592.27 954.964 1580.67 955.073 1569.06 z" fill="rgb(250,249,247)" transform="translate(0,0)"></path>
<path d="M 712.037 1248.35 C 726.686 1248 746.136 1247.66 760.51 1248.93 C 766.08 1255.59 772.374 1264.1 779.252 1269.02 C 797.037 1269.59 815.258 1268.62 833.11 1268.9 C 840.857 1269.02 859.089 1271.53 857.781 1282.74 L 855.25 1283.26 L 711.083 1283.51 C 710.975 1275.16 710.326 1255.15 712.037 1248.35 z" fill="rgb(250,249,247)" transform="translate(0,0)"></path>
<path d="M 711.005 1569.02 C 727.208 1568.74 743.414 1568.76 759.615 1569.1 C 766.106 1575.5 772.302 1583.55 778.96 1590.41 C 798.498 1590.42 829.206 1589.54 848.033 1591.07 C 854.675 1595.63 855.936 1596.22 857.906 1603.83 C 809.592 1604.64 759.372 1604.16 710.987 1604 L 711.005 1569.02 z" fill="rgb(250,249,247)" transform="translate(0,0)"></path>
<path d="M 974.558 948.416 C 994.54 948.733 1014.52 948.903 1034.51 948.924 C 1046.25 959.995 1063.32 979.957 1074.24 988.893 L 1074.34 1028.06 L 1201.97 1027.99 C 1202.14 1009.3 1202 990.619 1201.55 971.941 C 1201.4 965.684 1200.42 957.426 1205.44 952.665 C 1213.24 945.273 1258.13 948.674 1270.56 948.779 C 1283.58 962.252 1295.96 975.538 1309.26 988.84 L 1309.67 1027.4 C 1399.79 1028.98 1492.51 1027.5 1582.93 1027.72 L 1582.89 1039.89 L 1309.78 1039.68 C 1309.75 1052.43 1311.62 1094.82 1308.32 1104.28 C 1303.48 1108.18 1287.55 1108.74 1281.4 1108.17 C 1266.61 1106.8 1213.92 1111.67 1204.47 1103.85 C 1200.82 1094.35 1202.39 1051.88 1202.42 1039.78 L 1074.82 1039.95 C 1074.79 1058.68 1076.18 1082.42 1074.2 1101.18 C 1074.03 1102.8 1071.57 1105.74 1070.43 1107.07 C 1054.04 1111.45 1016.13 1105.89 997.468 1108.17 C 989.492 1109.14 964.344 1109.79 964.318 1097.45 C 964.277 1078.53 964.766 1058.97 964.736 1039.73 L 827.194 1039.26 C 827.04 1052.5 828.756 1093.7 825.64 1103.58 C 818.76 1111.07 725.283 1109.72 723.04 1104.09 C 718.201 1091.93 720.648 1055.27 720.723 1039.89 C 637.752 1038.76 554.198 1040.78 471.247 1039.91 C 468.486 1039.88 466.523 1037.18 465.256 1035.21 C 465.128 1030.94 464.624 1032.82 466.421 1029.28 C 476.036 1025.56 695.33 1028.01 720.065 1028.03 C 720.188 1013.79 720.236 999.545 720.207 985.301 C 720.112 977.184 718.885 967.641 720.106 959.657 C 720.53 956.88 721.461 954.003 723.607 952.06 C 730.04 946.236 776.6 948.805 787.817 948.772 C 800.212 959.604 814.308 976.643 827.557 989.083 C 827.092 1001.4 827.397 1015.53 827.4 1027.98 L 964.045 1027.66 C 963.994 1010.49 962.566 971.657 965.591 953.537 C 966.064 950.708 971.575 949.157 974.558 948.416 z" fill="rgb(109,74,255)" transform="translate(0,0)"></path>
<path d="M 786.043 956.374 C 789.08 958.023 814.662 985.95 817.516 989.687 C 808.734 990.537 795.284 990.252 786.366 990.125 C 786.085 978.877 785.977 967.625 786.043 956.374 z" fill="rgb(250,249,247)" transform="translate(0,0)"></path>
<path d="M 1268.49 957.343 C 1271.85 959.238 1277.45 965.366 1279.3 968.374 C 1281.99 972.735 1299.14 986.724 1299.4 989.45 C 1288.96 989.607 1278.52 989.546 1268.08 989.266 C 1267.98 981.087 1267.54 964.855 1268.49 957.343 z" fill="rgb(250,249,247)" transform="translate(0,0)"></path>
<path d="M 1032.91 958.531 C 1037.66 961.472 1060.02 983.704 1062.32 988.694 C 1052.65 990.331 1042.67 989.922 1032.83 989.888 C 1032.76 979.436 1032.79 968.983 1032.91 958.531 z" fill="rgb(250,249,247)" transform="translate(0,0)"></path>
<path d="M 1258.3 1129.31 C 1261.42 1129.57 1261.35 1129.5 1264.24 1130.66 C 1265.21 1137.01 1264.72 1164.56 1264.7 1172.18 C 1264.49 1202.44 1264.46 1232.7 1264.61 1262.96 C 1277.82 1263.4 1291.32 1263.04 1304.55 1263.01 C 1326.61 1262.95 1345.42 1260.26 1345.96 1289.08 C 1347.93 1393.51 1352.44 1382.93 1258.5 1382.79 C 1242.18 1382.8 1214.27 1386.12 1199.79 1380.18 C 1193.79 1377.72 1189 1372.09 1186.61 1366.16 C 1183.25 1357.87 1184.26 1272.49 1185.18 1258.4 C 1185.49 1253.73 1186.16 1249.27 1187.88 1244.89 C 1194.53 1239.19 1232.4 1241.85 1243.39 1242.09 C 1248.68 1246.58 1253.3 1251.91 1258 1257.03 L 1258.3 1129.31 z" fill="rgb(26,21,35)" transform="translate(0,0)"></path>
<path d="M 1191.75 1289.8 L 1339.2 1290.13 C 1339.33 1313.22 1340.21 1338.7 1338.42 1361.74 C 1338.21 1364.56 1335.96 1368.28 1334.46 1370.7 C 1327.51 1376.24 1320.97 1376.04 1312.09 1376.15 L 1242.32 1376.38 C 1230.02 1376.4 1194.42 1380.59 1192.72 1363.14 C 1190.45 1339.74 1191.59 1313.55 1191.75 1289.8 z" fill="rgb(250,249,247)" transform="translate(0,0)"></path>
<path d="M 1192.26 1248.37 C 1206.69 1247.81 1227.05 1247.87 1241.33 1248.74 C 1248.66 1256.22 1252.42 1261.46 1260.82 1269.1 C 1281.26 1269.75 1303.22 1267.89 1323.6 1269.74 C 1332.19 1270.52 1337.56 1274.98 1339.92 1283.28 C 1290.87 1283.75 1241.01 1283.31 1191.93 1283.08 C 1191.89 1271.43 1191.79 1260.02 1192.26 1248.37 z" fill="rgb(250,249,247)" transform="translate(0,0)"></path>
<path d="M 687.156 963.422 C 686.35 984.485 677.958 971.197 659.504 974.71 C 656.284 975.323 645.949 972.613 647.074 968.015 C 649.95 956.254 638.7 917.633 656.959 917.072 C 700.463 919.429 701.699 904.899 700.474 953.695 C 700.27 964.307 698.213 963.8 687.156 963.422 z" fill="rgb(109,74,255)" transform="translate(0,0)"></path>
<path d="M 682.216 970.013 C 640.294 970.204 655.366 973.533 652.612 931.994 C 651.865 920.73 658.712 921.824 668.028 922.204 C 674.89 922.484 690.933 920.121 695.107 925.704 C 695.072 932.217 695.257 938.86 695.125 945.366 C 694.846 959.06 697.578 958.104 684.64 958.642 C 681.781 960.399 682.525 966.628 682.216 970.013 z" fill="rgb(250,249,247)" transform="translate(0,0)"></path>
<path d="M 876.812 1088.45 C 882.326 1088.49 894.313 1087.32 893.408 1096.5 C 892.184 1108.92 896.541 1134.48 891.12 1145.1 C 888.838 1149.57 869.059 1148.27 863.872 1148.3 C 858.742 1148.34 846.892 1149.99 845.532 1141.93 C 844.234 1134.23 845.369 1124.77 845.07 1116.76 C 844.9 1112.22 844.627 1105.08 846.442 1100.86 C 848.777 1096.45 857.331 1101.76 859.826 1098.15 C 861.27 1096.07 858.251 1092.61 861.056 1090.49 C 864.527 1087.87 872.299 1088.71 876.812 1088.45 z" fill="rgb(109,74,255)" transform="translate(0,0)"></path>
<path d="M 866.066 1093.36 C 873.892 1093.21 879.552 1093.14 887.368 1093.74 C 887.776 1106.72 888.104 1128.97 886.905 1141.69 C 881.657 1142.41 879.59 1142.61 874.25 1142.7 C 865.987 1142.65 859.215 1142.63 850.971 1142.05 C 850.734 1129.54 850.705 1117.03 850.885 1104.52 C 866.033 1104.33 865.526 1106.96 866.066 1093.36 z" fill="rgb(250,249,247)" transform="translate(0,0)"></path>
<path d="M 1344.57 1088.27 C 1357.45 1088.26 1375.28 1083.87 1374.34 1099.5 C 1373.88 1107.24 1374.77 1117.86 1374.8 1125.83 C 1374.88 1146.21 1376.78 1148.14 1355.5 1147.98 C 1348.99 1147.94 1337.67 1148.65 1332 1146.73 C 1324.03 1144.03 1327.44 1125.38 1327.21 1118.1 C 1326.68 1101.76 1325.15 1099.29 1342.1 1099.95 C 1345.65 1100.09 1340.29 1093.5 1344.57 1088.27 z" fill="rgb(109,74,255)" transform="translate(0,0)"></path>
<path d="M 1347.75 1093.06 C 1354.99 1093.09 1361.71 1092.99 1368.95 1093.43 C 1369.58 1109.61 1369.65 1125.81 1369.17 1142 C 1364.57 1142.31 1360.45 1142.54 1355.82 1142.63 C 1347.7 1142.67 1341.16 1142.73 1333.08 1142.14 C 1332.97 1129.85 1332.95 1117.56 1333.04 1105.27 C 1348.53 1105.14 1348.1 1108.01 1347.75 1093.06 z" fill="rgb(250,249,247)" transform="translate(0,0)"></path>
<metadata><recraft-signature>{"signed_by": "recraft", "signature_b64": "s60R0jvwF+7+qFDGStT14dqW5qtqdQUmNf5n+SkCXBuePx7WVhaODwRtQ8TC6KhioWojiWDrnrcaeiJX+1pQBA==", "signing_algo": "Ed25519", "generation_timestamp": 1783935631, "identifier": "66be6608-e0e7-4e53-b65c-409932bd4de8"}</recraft-signature></metadata></svg>