<svg xmlns="http://www.w3.org/2000/svg" height="1024" preserveAspectRatio="none" style="display: block;" version="1.1" viewBox="0 0 2048 2048" width="1024">
<path d="M 813.634 241.229 C 932.028 231.309 1036.16 318.978 1046.56 437.331 C 1056.97 555.684 969.723 660.174 851.413 671.059 C 732.419 682.008 627.192 594.149 616.73 475.111 C 606.267 356.073 694.554 251.206 813.634 241.229 z" fill="rgb(109,74,255)" transform="translate(0,0)"></path>
<path d="M 829.778 305.302 C 913.546 303.594 982.874 370.044 984.717 453.809 C 986.56 537.574 920.222 607.009 836.46 608.988 C 752.507 610.971 682.878 544.448 681.031 460.492 C 679.183 376.535 745.819 307.014 829.778 305.302 z" fill="rgb(250,249,247)" transform="translate(0,0)"></path>
<path d="M 890.992 375.214 C 899.697 374.706 907.592 376.2 914.505 381.824 C 921.225 387.255 925.493 395.149 926.36 403.746 C 927.314 412.996 924.487 422.238 918.522 429.372 C 908.809 440.794 886.341 462.033 875.021 473.392 C 861.657 486.877 848.173 500.242 834.57 513.485 C 814.566 532.943 798.024 554.463 770.329 529.957 C 757.794 517.078 738.074 502.246 736.457 484.975 C 735.567 476.221 738.436 467.501 744.352 460.986 C 750.237 454.558 758.48 450.795 767.192 450.558 C 779.959 450.313 787.097 456.568 795.45 464.685 C 810.246 449.81 825.693 434.737 840.836 420.186 C 854.91 406.662 873.487 382.55 890.992 375.214 z" fill="rgb(109,74,255)" transform="translate(0,0)"></path>
<path d="M 467.661 1200.19 L 534.827 1200.06 L 534.882 1357.33 C 534.92 1394.37 537.108 1441.34 529.972 1476.73 C 524.488 1503.93 507.845 1530.73 493.322 1554.05 L 955.502 1554.72 L 1005.21 1554.81 C 1047.41 1554.8 1073.1 1551.8 1104.63 1520.99 C 1144.43 1482.1 1135.28 1419.5 1135.23 1368.65 L 1135.14 1200.43 L 1201.33 1200.37 L 1201.29 1312.5 L 1201.26 1399.76 C 1201.19 1463.76 1202.64 1511.63 1155.29 1563.67 C 1123.57 1598.45 1079.21 1619.03 1032.17 1620.78 C 991.545 1622.36 940.956 1620.98 899.426 1620.95 L 648.694 1620.77 L 484.249 1620.76 L 438.187 1620.87 C 414.058 1621.13 380.322 1625.54 378.863 1589.26 C 379.157 1570.32 400.641 1554.35 413.922 1541.9 C 476.815 1482.95 468.211 1431.28 468.074 1352.53 L 467.661 1200.19 z" fill="rgb(26,21,35)" transform="translate(0,0)"></path>
<path d="M 771.656 1091.5 L 1371.62 1091.85 L 1555.21 1092.2 L 1609.71 1092.16 C 1619.92 1092.14 1630.57 1091.71 1640.63 1092.48 C 1679.6 1095.46 1679.47 1153.9 1639.29 1156.23 C 1627.49 1156.91 1616.15 1156.37 1604.46 1156.3 L 1546.18 1156.53 L 1307.75 1156.28 L 712.988 1156.08 L 530.125 1156.45 C 500.499 1156.48 470.88 1156.69 441.265 1156.09 C 422.848 1155.73 409.672 1144.29 408.98 1125.37 C 408.603 1116.07 412.145 1107.04 418.745 1100.48 C 430.902 1088.33 456.783 1091.59 473.283 1091.68 L 537.785 1091.79 L 771.656 1091.5 z" fill="rgb(109,74,255)" transform="translate(0,0)"></path>
<path d="M 1270.08 1200.27 L 1337.74 1200.4 L 1337.38 1490.71 C 1337.67 1528.49 1337.72 1566.28 1337.53 1604.06 C 1337.21 1639.89 1340.44 1668.22 1322.17 1700.75 C 1307.72 1726.57 1283.57 1745.56 1255.07 1753.52 C 1232.31 1759.88 1204.03 1758.54 1180.12 1758.64 L 1097.81 1758.53 L 934.91 1758.63 L 807.601 1758.88 C 761.68 1758.97 722.569 1764.42 681.148 1740.98 C 648.781 1719.46 634.076 1698.35 624.248 1660.91 L 693.112 1661.06 C 703.783 1680.49 719.224 1691.14 741.932 1691.46 C 776.712 1691.95 811.511 1691.57 846.298 1691.48 L 1023.79 1691.75 L 1156.11 1691.65 C 1164.86 1691.63 1174.17 1691.96 1182.87 1691.6 C 1206.87 1690.62 1234.12 1696.23 1253.17 1678.21 C 1261.63 1670.21 1267.2 1659.64 1269.02 1648.14 C 1270.94 1635.88 1270.15 1612 1270.09 1598.63 L 1269.81 1517.75 L 1269.79 1346.92 C 1269.66 1298.52 1269.05 1248.58 1270.08 1200.27 z" fill="rgb(26,21,35)" transform="translate(0,0)"></path>
<path d="M 1097.6 494.48 L 1279.99 494.641 C 1309.75 494.651 1349.69 492.812 1378.09 497.11 C 1399.98 502.294 1420.62 513.269 1436.28 528.634 C 1474.27 565.908 1472.09 603.355 1472.31 652.819 L 1472.59 733.002 L 1472.67 1048.43 L 1449.33 1048.46 L 1403.08 1048.4 L 1403.06 743.852 L 1403.11 654.476 C 1403.11 641.962 1403.76 616.559 1402.23 605.051 C 1400.87 594.372 1396.19 584.392 1388.85 576.524 C 1372.08 558.918 1348.34 561.848 1326.14 561.861 L 1274.33 561.917 C 1209.01 561.991 1140.22 562.746 1075.11 561.296 C 1076.32 557.058 1078.17 552.177 1079.65 547.991 C 1085.44 531.63 1090.01 515.001 1094.58 498.279 C 1095.46 495.058 1095.02 495.699 1097.6 494.48 z" fill="rgb(26,21,35)" transform="translate(0,0)"></path>
<path d="M 1227.58 643.375 C 1254.92 639.648 1287.96 653.453 1307.27 672.828 C 1338.74 704.4 1337.35 733.738 1337.36 775.025 L 1337.36 832.27 L 1337.31 1048.88 L 1269.95 1048.59 L 1269.88 835.335 C 1269.78 805.139 1270.31 774.95 1270 744.768 C 1269.81 725.824 1260.06 716.536 1243.7 709.295 C 1231.36 707.718 1221.72 708.229 1211.86 717.287 C 1198.09 729.938 1201.58 753.122 1201.57 770.794 L 1201.41 825.679 L 1201.12 1048.54 L 1135.01 1048.26 L 1135.25 831.758 L 1135.25 773.494 C 1135.25 759.63 1134.79 740.858 1137.08 727.522 C 1140.24 709.949 1147.79 693.458 1159.02 679.577 C 1176.93 657.499 1199.69 646.443 1227.58 643.375 z" fill="rgb(26,21,35)" transform="translate(0,0)"></path>
<path d="M 1540.52 1200.1 L 1608.69 1200.17 L 1608.92 1400.26 C 1608.89 1427.29 1610.38 1489.18 1605.24 1512.5 C 1601.01 1531.08 1591.78 1548.15 1578.56 1561.87 C 1559.74 1580.97 1534.02 1591.71 1507.2 1591.65 C 1478.83 1591.74 1454.63 1581.29 1434.58 1561.33 C 1421.77 1548.77 1412.45 1533.08 1407.55 1515.81 C 1401.04 1492.1 1403.21 1453.02 1403.23 1427.31 L 1403.09 1335.04 L 1403.33 1200.91 L 1472.66 1200.83 L 1472.79 1399.5 L 1472.73 1458.44 C 1472.72 1475.68 1469.9 1501.86 1482.17 1514.88 C 1488.22 1521.31 1496.66 1524.96 1505.49 1524.98 C 1522.48 1524.97 1537.73 1511.44 1539.66 1494.57 C 1541.11 1481.86 1540.63 1469.02 1540.49 1456.26 C 1540.26 1438.18 1540.13 1420.09 1540.1 1402.01 L 1540.52 1200.1 z" fill="rgb(26,21,35)" transform="translate(0,0)"></path>
<path d="M 569.812 494.056 C 569.847 494.121 569.881 494.186 569.916 494.25 C 576.164 512.577 587.169 529.693 594.311 547.566 C 567.777 564.251 546.205 591.25 538.697 622.162 C 533.332 644.253 534.839 671.149 534.843 694.126 L 534.84 770.031 L 534.644 1048.79 L 493.737 1048.66 L 467.845 1048.39 L 467.844 769.811 L 467.797 688.822 C 467.773 671.27 467.176 653.224 468.652 635.764 C 474.144 570.796 510.45 520.26 569.812 494.056 z" fill="rgb(26,21,35)" transform="translate(0,0)"></path>
<path d="M 1648.75 627.427 C 1658.8 626.18 1669.22 628.721 1676.66 635.822 C 1682.99 641.907 1686.45 650.379 1686.2 659.152 C 1685.28 700.335 1644.43 683.062 1623.59 705.535 C 1605.59 724.956 1608.93 752.031 1608.94 776.38 L 1608.99 839.355 L 1608.58 1048.45 L 1579.5 1048.42 L 1540.56 1048.45 L 1540.12 836.279 L 1540.07 772.66 C 1540.08 755.149 1539.54 733.736 1542.81 716.909 C 1546.33 698.302 1554.63 680.929 1566.89 666.495 C 1588.81 640.914 1615.86 630.149 1648.75 627.427 z" fill="rgb(26,21,35)" transform="translate(0,0)"></path>
<metadata><recraft-signature>{"signed_by": "recraft", "signature_b64": "jVp3Sm6EdrnN67TLsjLr/2QcgevhjKFRp30HYhkzU3rpwSv11/p7+CGRrF3YGgQdRxeBAxQL7+5zWR3JIeywCQ==", "signing_algo": "Ed25519", "generation_timestamp": 1783935648, "identifier": "f9add5e0-da2e-4565-9cd0-5dc2fd88d2c7"}</recraft-signature></metadata></svg>