<svg xmlns="http://www.w3.org/2000/svg" height="1024" preserveAspectRatio="none" style="display: block;" version="1.1" viewBox="0 0 2048 2048" width="1024">
<path d="M 1428.47 877.41 C 1433.36 876.791 1450.75 876.239 1453.59 879.755 C 1457.58 884.695 1456.26 906.317 1456.28 912.954 C 1456.31 926.824 1456.12 940.321 1456.1 953.958 L 1456.07 1099.53 L 1456.81 1300 C 1456.74 1364.36 1464.89 1421.74 1421.18 1475.23 C 1395.02 1506.9 1357.39 1526.91 1316.51 1530.9 C 1301.88 1532.28 1284.93 1531.85 1270.09 1531.87 L 1202.22 1531.91 L 982.476 1531.77 L 817.037 1531.82 C 794.417 1531.85 744.913 1533.12 724.437 1529.99 C 696.439 1525.51 670.157 1513.59 648.332 1495.49 C 613.983 1466.62 596.652 1431.59 593 1387.25 L 592.641 1090.34 L 592.575 948.809 C 592.61 939.977 591.364 890.383 594.485 880.777 C 598.941 875.773 618.937 877.843 623.279 878.007 C 688.513 880.456 746.231 930.895 758.871 994.642 C 762.687 1013.89 761.997 1033.51 761.992 1053.11 L 1287.05 1053.08 C 1286.69 1003.65 1288.09 970.359 1322.17 929.108 C 1350.1 895.299 1385.61 881.006 1428.47 877.41 z" fill="rgb(26,21,35)" transform="translate(0,0)"></path>
<path d="M 602.983 888.084 C 630.707 887.386 656.405 891.148 681.153 904.661 C 721.279 926.571 748.184 968.831 751.076 1014.53 C 751.989 1028.97 750.441 1046.73 753.604 1060.62 C 753.969 1062.23 754.485 1062.92 755.963 1063.04 C 771.696 1064.33 792.6 1063.95 808.004 1063.91 L 918.014 1063.65 L 1193.73 1063.57 C 1205.2 1063.54 1290.85 1065.16 1295.36 1062.47 C 1298.06 1054.58 1298.11 1038.42 1297.81 1029.66 C 1295.6 966.292 1337.96 907.039 1400 891.667 C 1416 887.704 1429.54 887.808 1445.73 888.123 L 1445.97 1348.04 C 1446.2 1400.5 1444.05 1436.74 1404.95 1477.61 C 1376.98 1506.84 1339.1 1520.92 1299.01 1521.31 L 910.649 1521.56 L 794.998 1521.27 C 735.829 1521.07 691.117 1524.85 644.962 1479.03 C 624.764 1458.99 611.093 1433.32 605.745 1405.38 C 601.939 1385.77 602.92 1357.22 602.919 1336.51 L 602.939 1239.56 L 602.983 888.084 z" fill="rgb(250,249,247)" transform="translate(0,0)"></path>
<path d="M 1039.69 1158.41 C 1071.06 1152.15 1118.55 1172.93 1136.5 1199 C 1148.22 1216.01 1156.25 1234.92 1153.05 1255.88 C 1148.72 1293.4 1109.13 1312.93 1079.59 1325.98 C 1037.66 1344.52 1053.09 1344.95 1052.19 1383.01 C 1052.04 1389.09 1046.51 1401.37 1039.92 1405.08 C 1014.18 1419.57 986.156 1406.54 973.526 1381.4 C 964.478 1363.66 964.859 1349.96 969.625 1332.23 C 984.842 1291.5 1006.86 1281.28 1044.07 1261.53 C 1050.96 1257.88 1070.64 1251.79 1072.26 1245.05 L 1070.7 1243.59 C 1033.43 1232.14 983.022 1256.4 947.184 1263.73 C 934.643 1266.29 914.238 1257.54 904.234 1249.79 C 889.447 1238.33 889.778 1219.64 902.263 1206.19 C 933.816 1172.27 995.577 1162.45 1039.69 1158.41 z" fill="rgb(56,16,112)" transform="translate(0,0)"></path>
<path d="M 961.227 543.427 C 996.217 542.537 1031.16 555.138 1058.88 576.217 C 1091.5 600.757 1112.86 637.413 1118.12 677.898 C 1122.74 712.403 1116.6 748.049 1098.59 778.076 C 1093.01 787.379 1084.03 798.672 1077.31 807.506 C 1082.01 812.739 1085.87 815.957 1091.2 820.533 C 1111.54 808.017 1131.24 802.152 1150.98 820.802 C 1161.76 830.986 1172.91 841.708 1183.25 852.326 C 1203.59 873.207 1227.82 891.822 1244.83 915.456 C 1248.39 920.43 1249.63 928.085 1249.95 934.024 C 1250.61 946.652 1245.95 958.979 1237.11 968.019 C 1202.42 1003.45 1169.17 963.127 1145.6 939.314 C 1134.62 928.447 1123.57 917.663 1112.43 906.963 C 1088.92 884.508 1062.14 863.629 1085.4 828.639 C 1080.02 824.09 1074.88 819.059 1069.77 814.197 C 1039.9 838.794 1014.15 851.061 975.201 854.274 C 888.204 861.451 811.86 793.956 807.157 706.589 C 804.928 665.488 819.251 625.207 846.929 594.741 C 878.699 559.758 914.967 545.614 961.227 543.427 z" fill="rgb(26,21,35)" transform="translate(0,0)"></path>
<path d="M 948.032 554.292 C 1028.09 545.812 1099.85 603.873 1108.27 683.938 C 1116.69 764.004 1058.58 835.722 978.505 844.081 C 898.518 852.43 826.894 794.391 818.484 714.411 C 810.074 634.431 868.059 562.763 948.032 554.292 z" fill="rgb(250,249,247)" transform="translate(0,0)"></path>
<path d="M 960.452 583.479 C 1023.71 581.988 1076.32 631.821 1078.26 695.068 C 1080.19 758.315 1030.73 811.274 967.498 813.655 C 903.634 816.06 850.03 765.994 848.074 702.115 C 846.119 638.235 896.56 584.985 960.452 583.479 z" fill="rgb(26,21,35)" transform="translate(0,0)"></path>
<path d="M 950.836 594.438 C 1008.12 587.665 1060.11 628.457 1067.17 685.711 C 1074.22 742.964 1033.68 795.152 976.459 802.481 C 918.846 809.861 866.219 768.981 859.119 711.333 C 852.019 653.685 893.155 601.257 950.836 594.438 z" fill="rgb(250,249,247)" transform="translate(0,0)"></path>
<path d="M 1116.58 819.217 C 1128.8 818.282 1137.41 822.029 1146.16 830.517 C 1172.8 857.173 1201.38 882.521 1227.73 909.338 C 1250.02 932.013 1241.44 961.734 1210.91 970.544 C 1202.72 971.317 1190.28 969.225 1184.2 963.381 C 1155.35 935.634 1127.17 906.855 1098.72 878.679 C 1088.04 868.097 1083.56 854.393 1090.18 840.155 C 1095.46 828.791 1105.14 823.13 1116.58 819.217 z" fill="rgb(250,249,247)" transform="translate(0,0)"></path>
<metadata><recraft-signature>{"signed_by": "recraft", "signature_b64": "JF35OQVJCuii8Blx7Tg3N3KcFsMwqy3mSgcQYNQOpRpO76qXpB4jtgAfy5+pLRv/7EfvT1eKff3xLTbWjE6yBQ==", "signing_algo": "Ed25519", "generation_timestamp": 1783935669, "identifier": "4ac4649c-50cc-46bb-8f6d-509e1d7942fb"}</recraft-signature></metadata></svg>