<svg xmlns="http://www.w3.org/2000/svg" height="1024" preserveAspectRatio="none" style="display: block;" version="1.1" viewBox="0 0 2048 2048" width="1024">
<path d="M 1403.24 678.886 C 1404.11 679.101 1403.53 678.896 1404.75 679.928 C 1402.76 702.942 1398.75 724.694 1396.51 747.368 C 1415.03 741.071 1433.23 733.85 1451.03 725.732 C 1437.79 794.668 1427.7 864.399 1413.61 933.481 C 1400.88 995.921 1386.4 1054.47 1371.2 1116.19 C 1361.32 1157.27 1350.69 1198.16 1339.35 1238.86 C 1318.35 1316.76 1295.68 1406.87 1250.75 1474.44 C 1217.01 1525.19 1153.62 1509.5 1103.26 1505.31 C 1072.59 1502.88 1041.86 1501.18 1011.1 1500.21 C 875.293 1495.03 745.657 1496.28 610.582 1513.47 C 614.469 1507.85 619.37 1501.62 623.521 1496.08 C 631.051 1484.37 638.225 1469.99 644.326 1457.49 C 616.208 1461.07 575.237 1469.8 547.976 1476.64 C 572.606 1429.71 598.327 1381.51 618.053 1332.32 C 688.484 1156.71 746.377 965.25 780.338 779.344 C 963.153 802.145 1244.75 777.464 1403.24 678.886 z" fill="rgb(26,21,35)" transform="translate(0,0)"></path>
<path d="M 1392.86 696.918 C 1396.47 700.032 1380.87 772.63 1379.21 781.778 C 1374.55 807.475 1370.27 833.673 1364.99 859.226 C 1340.92 973.785 1313.32 1087.57 1282.22 1200.43 C 1263.43 1269.91 1241.77 1350.13 1208.03 1414.16 C 1186.95 1454.18 1117.97 1443.07 1079.18 1439.93 C 1050.61 1437.63 1022.01 1435.76 993.382 1434.34 C 861.323 1428.2 701.817 1431.7 573.809 1460.53 C 571.532 1460.99 570.495 1461.02 568.156 1461.23 C 569.315 1455.61 579.915 1437.12 583.013 1430.94 C 590.191 1416.3 597.223 1401.6 604.109 1386.82 C 619.924 1353.11 634.384 1318.79 647.453 1283.92 C 684.997 1185.09 717.198 1084.3 743.918 982.009 C 760.953 918.382 775.771 854.181 788.344 789.524 C 826.962 794.875 884.329 796.438 923.082 796.087 C 1087.08 794.604 1245.04 771.31 1392.86 696.918 z" fill="rgb(250,249,247)" transform="translate(0,0)"></path>
<path d="M 875.649 1292.45 C 974.306 1289.11 1088 1296.84 1185.33 1313.74 C 1189.58 1314.47 1191.14 1315.18 1193.34 1318.47 C 1190.45 1332.06 1154.56 1328.46 1143.97 1327.88 C 1129.63 1327.09 1115.21 1326.11 1100.84 1325.39 C 1061.75 1323.7 1022.63 1322.37 983.513 1321.4 C 907.796 1320.8 832.075 1321.85 756.404 1324.54 C 738.505 1325.14 720.92 1326.1 703.053 1327.4 C 694.185 1328.05 667.397 1331.74 664.379 1321.02 C 664.815 1319.88 664.802 1319.71 665.648 1318.61 C 680.105 1299.89 844.542 1293.42 875.649 1292.45 z" fill="rgb(104,66,156)" transform="translate(0,0)"></path>
<path d="M 1483.68 409.854 C 1484.12 413.73 1480.26 432.449 1479.11 437.034 C 1466.22 488.111 1447.67 539.513 1415.13 581.444 C 1344.29 672.728 1244.48 704.161 1135.27 718.762 C 1079.69 726.194 1023.28 724.807 968.123 714.653 C 962.689 713.672 946.314 711.481 942.66 708.685 L 943.344 707.506 C 1061.03 654.18 1107.89 576.555 1140.98 456.81 C 1155.52 461.608 1173.11 467.231 1188.2 470.369 C 1256.73 484.619 1333.48 479.754 1399.04 454.818 C 1427.68 443.926 1458.25 426.266 1483.68 409.854 z" fill="rgb(26,21,35)" transform="translate(0,0)"></path>
<path d="M 1469.75 429.97 L 1470.34 430.553 C 1470.66 433.831 1466.72 448.495 1465.63 452.435 C 1453.5 496.207 1438.15 534.816 1411.01 571.498 C 1347.37 657.504 1251.46 692.758 1149.43 707.703 C 1095.7 715.573 1044.27 716.92 990.308 708.871 C 986.463 708.298 974.618 706.888 972.076 705.011 L 974.3 703.094 C 1073.65 647.841 1116.94 575.433 1147.68 469.712 C 1153.89 471.546 1160.14 473.257 1166.42 474.843 C 1271.7 501.739 1376.69 485.141 1469.75 429.97 z" fill="rgb(250,249,247)" transform="translate(0,0)"></path>
<metadata><recraft-signature>{"signed_by": "recraft", "signature_b64": "Ug6okxW6nDdBQZhWiOqwhgg9tRFZ7PGrJWXQiwbLWwKXZR4SuA6OKDwcHv1Yd0Ppu7dnzKf1qd4+jeIqRVZlBg==", "signing_algo": "Ed25519", "generation_timestamp": 1783935702, "identifier": "0398ecba-4c40-4126-a599-66806ab7d6e3"}</recraft-signature></metadata></svg>