<svg xmlns="http://www.w3.org/2000/svg" width="512" height="512"><path fill="#FAF9F7" stroke="#FAF9F7" d="M170.5 107q22.51-2.01 29.5 11.5l5 12V173h78.5l1 1 11 1q28.63 7.87 45.5 27.5 15.86 17.14 21 45v8l1 1v65l-1 1-1 13-5 16q-8.67 20.33-24.5 33.5-16.67 15.33-44 20h-116q-10.91-2.59-16.5-10.5l-6-14v-249q2.58-13.92 12.5-20.5zM214 228l-2 1-7 8v105l2 4q3 4 10 5h60l11-3 8-5q8-7 11-20v-66q-1-10-6-15-7-11-21-14z"/><path fill="#FAF9F7" stroke="#FAF9F7" d="M229.5 271h53l3.5 2.5 1 3-2.5 4.5-2 1h-53l-2.5-1q-1.62-2.06-1-7.5zm-1 26h37l2.5 2.5q1.25 6.25-2.5 7.5h-37l-2.5-2.5q-1.25-6.25 2.5-7.5Z"/><path fill="#6D4AFF" stroke="#6D4AFF" d="M137.5 51h237l17 3 18 7q15.94 8.56 27.5 21.5 10.47 11.53 17 27l5 16 1 13 1 1v234l-4 21-8 18q-9.6 16.9-24.5 28.5l-22 13-8 3-20 4h-237l-16-3-22-9q-16.66-9.84-28.5-24.5-9.22-11.78-15-27l-5-24v-235l1-1 1-12 5-16Q66.66 89.66 81.5 76q11.81-11.19 28-18l15-5 12-1zm33.5 56-9 4q-10 7-13 21v249l6 14q6 7 17 10h116q27-5 44-20 15-13 24-33l5-16 1-13 1-1v-65l-1-1v-8q-5-28-21-45-17-20-45-28l-11-1-1-1h-79v-42l-5-12q-7-14-29-12Z"/><path fill="#6D4AFF" stroke="#6D4AFF" d="M213.5 228h66q14.4 3.1 21.5 13.5 4.51 5.99 6 15v66q-2.77 13.23-11.5 20.5l-8 5-11 3h-60q-6.63-.88-9.5-5.5l-2-4v-105l6.5-7.5zm16.5 43-4 3q-1 5 1 7l3 1h53l2-1 2-4-1-3-3-3zm-1 26q-4 1-3 8l3 2h37q3-1 2-7l-2-3z"/></svg>